<svg xmlns="http://www.w3.org/2000/svg" xmlns:xlink="http://www.w3.org/1999/xlink" preserveAspectRatio="xMidYMid" width="253" height="64" viewBox="0 0 253 64">
  <defs>
    <style>
      .cls-1 {
        fill: #fff;
      }

      .cls-1, .cls-2, .cls-3, .cls-4, .cls-5, .cls-6, .cls-7 {
        fill-rule: evenodd;
      }

      .cls-2 {
        fill: #0af;
      }

      .cls-3 {
        fill: #a422e6;
      }

      .cls-4 {
        fill: #e61e17;
      }

      .cls-5 {
        fill: #ff9600;
      }

      .cls-6 {
        fill: #ffc800;
      }

      .cls-7 {
        fill: #81ca00;
      }
    </style>
  </defs>
  <path d="M252.933,47.360 C252.891,47.425 252.811,47.458 252.695,47.458 L247.973,47.458 C247.982,47.906 248.043,48.296 248.155,48.627 C248.267,48.958 248.421,49.235 248.617,49.456 C248.813,49.678 249.047,49.844 249.318,49.953 C249.589,50.063 249.892,50.118 250.229,50.118 C250.541,50.118 250.811,50.082 251.038,50.009 C251.264,49.937 251.459,49.859 251.623,49.775 C251.786,49.691 251.923,49.613 252.033,49.540 C252.142,49.468 252.237,49.432 252.316,49.432 C252.419,49.432 252.499,49.472 252.555,49.551 L252.905,50.006 C252.751,50.193 252.566,50.355 252.351,50.492 C252.137,50.630 251.907,50.743 251.661,50.832 C251.416,50.921 251.163,50.987 250.901,51.031 C250.640,51.076 250.380,51.098 250.124,51.098 C249.633,51.098 249.181,51.015 248.768,50.849 C248.354,50.684 247.997,50.441 247.696,50.121 C247.395,49.802 247.160,49.406 246.992,48.935 C246.824,48.464 246.740,47.922 246.740,47.311 C246.740,46.816 246.815,46.354 246.967,45.925 C247.119,45.496 247.337,45.123 247.622,44.808 C247.907,44.493 248.255,44.246 248.666,44.066 C249.077,43.887 249.540,43.797 250.053,43.797 C250.478,43.797 250.871,43.868 251.230,44.010 C251.590,44.153 251.901,44.358 252.162,44.626 C252.424,44.895 252.628,45.226 252.775,45.620 C252.922,46.015 252.996,46.464 252.996,46.968 C252.996,47.164 252.975,47.295 252.933,47.360 ZM251.756,45.886 C251.676,45.646 251.560,45.438 251.406,45.263 C251.251,45.089 251.063,44.953 250.842,44.857 C250.620,44.762 250.366,44.714 250.081,44.714 C249.479,44.714 249.005,44.888 248.659,45.235 C248.314,45.583 248.099,46.065 248.015,46.681 L251.875,46.681 C251.875,46.392 251.835,46.127 251.756,45.886 ZM244.112,46.485 C244.112,45.930 243.991,45.508 243.748,45.221 C243.505,44.934 243.152,44.791 242.690,44.791 C242.484,44.791 242.290,44.827 242.105,44.899 C241.921,44.972 241.758,45.078 241.618,45.218 C241.478,45.358 241.367,45.534 241.285,45.747 C241.204,45.959 241.163,46.205 241.163,46.485 L241.163,51.000 L239.916,51.000 L239.916,46.485 C239.916,45.916 239.801,45.491 239.572,45.211 C239.343,44.931 239.009,44.791 238.571,44.791 C238.262,44.791 237.976,44.874 237.712,45.039 C237.448,45.205 237.207,45.430 236.987,45.715 L236.987,51.000 L235.740,51.000 L235.740,43.909 L236.483,43.909 C236.660,43.909 236.772,43.995 236.819,44.168 L236.910,44.896 C237.172,44.574 237.465,44.310 237.789,44.105 C238.114,43.900 238.491,43.797 238.921,43.797 C239.402,43.797 239.791,43.930 240.087,44.196 C240.384,44.462 240.598,44.821 240.728,45.274 C240.826,45.017 240.956,44.796 241.117,44.609 C241.278,44.422 241.459,44.268 241.660,44.147 C241.861,44.026 242.075,43.937 242.301,43.881 C242.528,43.825 242.758,43.797 242.991,43.797 C243.365,43.797 243.698,43.856 243.990,43.975 C244.282,44.094 244.529,44.268 244.732,44.497 C244.936,44.726 245.091,45.007 245.198,45.340 C245.306,45.674 245.359,46.056 245.359,46.485 L245.359,51.000 L244.112,51.000 L244.112,46.485 ZM233.849,47.458 L229.127,47.458 C229.136,47.906 229.197,48.296 229.309,48.627 C229.421,48.958 229.575,49.235 229.771,49.456 C229.967,49.678 230.201,49.844 230.472,49.953 C230.743,50.063 231.046,50.118 231.382,50.118 C231.695,50.118 231.965,50.082 232.192,50.009 C232.418,49.937 232.613,49.859 232.777,49.775 C232.940,49.691 233.077,49.613 233.187,49.540 C233.296,49.468 233.391,49.432 233.470,49.432 C233.573,49.432 233.652,49.472 233.709,49.551 L234.059,50.006 C233.905,50.193 233.720,50.355 233.505,50.492 C233.290,50.630 233.060,50.743 232.815,50.832 C232.570,50.921 232.317,50.987 232.055,51.031 C231.793,51.076 231.534,51.098 231.277,51.098 C230.787,51.098 230.335,51.015 229.922,50.849 C229.508,50.684 229.151,50.441 228.850,50.121 C228.549,49.802 228.314,49.406 228.146,48.935 C227.978,48.464 227.893,47.922 227.893,47.311 C227.893,46.816 227.969,46.354 228.121,45.925 C228.273,45.496 228.491,45.123 228.776,44.808 C229.061,44.493 229.409,44.246 229.820,44.066 C230.231,43.887 230.693,43.797 231.207,43.797 C231.632,43.797 232.025,43.868 232.384,44.010 C232.744,44.153 233.055,44.358 233.316,44.626 C233.578,44.895 233.782,45.226 233.929,45.620 C234.076,46.015 234.150,46.464 234.150,46.968 C234.150,47.164 234.129,47.295 234.087,47.360 C234.045,47.425 233.965,47.458 233.849,47.458 ZM232.910,45.886 C232.830,45.646 232.714,45.438 232.560,45.263 C232.405,45.089 232.217,44.953 231.996,44.857 C231.774,44.762 231.520,44.714 231.235,44.714 C230.633,44.714 230.159,44.888 229.813,45.235 C229.467,45.583 229.253,46.065 229.169,46.681 L233.029,46.681 C233.029,46.392 232.989,46.127 232.910,45.886 ZM225.266,46.485 C225.266,45.948 225.144,45.532 224.898,45.235 C224.653,44.939 224.278,44.791 223.774,44.791 C223.405,44.791 223.060,44.880 222.741,45.057 C222.421,45.234 222.125,45.475 221.854,45.778 L221.854,51.000 L220.607,51.000 L220.607,40.689 L221.854,40.689 L221.854,44.861 C222.158,44.539 222.494,44.281 222.863,44.087 C223.232,43.894 223.657,43.797 224.138,43.797 C224.526,43.797 224.868,43.861 225.165,43.989 C225.461,44.118 225.709,44.300 225.907,44.535 C226.106,44.771 226.256,45.055 226.359,45.386 C226.462,45.717 226.513,46.084 226.513,46.485 L226.513,51.000 L225.266,51.000 L225.266,46.485 ZM216.130,51.000 L214.771,51.000 L214.771,42.110 L211.513,42.110 L211.513,40.969 L219.374,40.969 L219.374,42.110 L216.130,42.110 L216.130,51.000 ZM204.914,46.527 C205.087,46.616 205.283,46.694 205.502,46.761 C205.722,46.829 205.947,46.901 206.178,46.978 C206.410,47.055 206.635,47.141 206.855,47.234 C207.074,47.327 207.270,47.444 207.443,47.584 C207.616,47.724 207.755,47.895 207.860,48.099 C207.965,48.301 208.018,48.545 208.018,48.830 C208.018,49.157 207.959,49.459 207.842,49.736 C207.726,50.014 207.553,50.254 207.324,50.457 C207.095,50.660 206.815,50.820 206.483,50.937 C206.152,51.054 205.769,51.112 205.334,51.112 C204.839,51.112 204.391,51.031 203.989,50.870 C203.587,50.709 203.246,50.503 202.966,50.251 L203.260,49.775 C203.298,49.714 203.342,49.668 203.394,49.635 C203.445,49.602 203.513,49.586 203.597,49.586 C203.681,49.586 203.769,49.619 203.863,49.684 C203.956,49.749 204.070,49.822 204.203,49.901 C204.336,49.980 204.497,50.053 204.686,50.118 C204.875,50.183 205.112,50.216 205.397,50.216 C205.640,50.216 205.853,50.184 206.035,50.121 C206.217,50.058 206.369,49.973 206.490,49.866 C206.612,49.759 206.702,49.635 206.760,49.495 C206.818,49.355 206.848,49.206 206.848,49.047 C206.848,48.851 206.795,48.689 206.690,48.560 C206.585,48.432 206.446,48.322 206.273,48.231 C206.100,48.140 205.903,48.061 205.681,47.993 C205.459,47.926 205.233,47.855 205.001,47.780 C204.770,47.705 204.544,47.620 204.322,47.524 C204.100,47.429 203.903,47.309 203.730,47.164 C203.557,47.019 203.418,46.841 203.313,46.628 C203.208,46.416 203.155,46.158 203.155,45.855 C203.155,45.584 203.211,45.324 203.324,45.074 C203.436,44.825 203.599,44.605 203.814,44.416 C204.029,44.227 204.293,44.077 204.606,43.965 C204.918,43.853 205.276,43.797 205.678,43.797 C206.145,43.797 206.564,43.870 206.935,44.017 C207.306,44.164 207.628,44.366 207.898,44.623 L207.618,45.078 C207.562,45.181 207.476,45.232 207.359,45.232 C207.289,45.232 207.209,45.206 207.121,45.155 C207.032,45.104 206.923,45.046 206.795,44.984 C206.666,44.920 206.514,44.862 206.336,44.808 C206.159,44.755 205.948,44.728 205.706,44.728 C205.495,44.728 205.306,44.755 205.138,44.808 C204.970,44.862 204.826,44.936 204.707,45.029 C204.588,45.122 204.497,45.231 204.434,45.354 C204.371,45.478 204.339,45.612 204.339,45.757 C204.339,45.939 204.392,46.091 204.497,46.212 C204.602,46.333 204.741,46.438 204.914,46.527 ZM198.833,46.527 C199.006,46.616 199.202,46.694 199.421,46.761 C199.641,46.829 199.866,46.901 200.097,46.978 C200.329,47.055 200.554,47.141 200.773,47.234 C200.993,47.327 201.189,47.444 201.362,47.584 C201.535,47.724 201.674,47.895 201.779,48.099 C201.884,48.301 201.936,48.545 201.936,48.830 C201.936,49.157 201.878,49.459 201.761,49.736 C201.645,50.014 201.472,50.254 201.243,50.457 C201.014,50.660 200.734,50.820 200.402,50.937 C200.070,51.054 199.688,51.112 199.253,51.112 C198.758,51.112 198.310,51.031 197.908,50.870 C197.506,50.709 197.165,50.503 196.885,50.251 L197.179,49.775 C197.217,49.714 197.261,49.668 197.312,49.635 C197.364,49.602 197.432,49.586 197.516,49.586 C197.600,49.586 197.688,49.619 197.782,49.684 C197.875,49.749 197.989,49.822 198.122,49.901 C198.255,49.980 198.416,50.053 198.605,50.118 C198.794,50.183 199.031,50.216 199.316,50.216 C199.559,50.216 199.772,50.184 199.954,50.121 C200.136,50.058 200.288,49.973 200.409,49.866 C200.531,49.759 200.620,49.635 200.679,49.495 C200.737,49.355 200.766,49.206 200.766,49.047 C200.766,48.851 200.714,48.689 200.609,48.560 C200.504,48.432 200.365,48.322 200.192,48.231 C200.019,48.140 199.822,48.061 199.600,47.993 C199.378,47.926 199.152,47.855 198.920,47.780 C198.689,47.705 198.463,47.620 198.241,47.524 C198.019,47.429 197.821,47.309 197.649,47.164 C197.476,47.019 197.337,46.841 197.232,46.628 C197.127,46.416 197.074,46.158 197.074,45.855 C197.074,45.584 197.130,45.324 197.242,45.074 C197.354,44.825 197.518,44.605 197.733,44.416 C197.948,44.227 198.212,44.077 198.525,43.965 C198.837,43.853 199.195,43.797 199.596,43.797 C200.063,43.797 200.483,43.870 200.854,44.017 C201.225,44.164 201.546,44.366 201.817,44.623 L201.537,45.078 C201.481,45.181 201.395,45.232 201.278,45.232 C201.208,45.232 201.128,45.206 201.040,45.155 C200.951,45.104 200.842,45.046 200.714,44.984 C200.585,44.920 200.432,44.862 200.255,44.808 C200.077,44.755 199.867,44.728 199.624,44.728 C199.414,44.728 199.225,44.755 199.057,44.808 C198.889,44.862 198.745,44.936 198.626,45.029 C198.507,45.122 198.416,45.231 198.353,45.354 C198.290,45.478 198.258,45.612 198.258,45.757 C198.258,45.939 198.311,46.091 198.416,46.212 C198.521,46.333 198.660,46.438 198.833,46.527 ZM195.582,47.458 L190.860,47.458 C190.869,47.906 190.930,48.296 191.042,48.627 C191.154,48.958 191.308,49.235 191.505,49.456 C191.701,49.678 191.934,49.844 192.205,49.953 C192.476,50.063 192.780,50.118 193.116,50.118 C193.429,50.118 193.699,50.082 193.925,50.009 C194.152,49.937 194.347,49.859 194.510,49.775 C194.674,49.691 194.810,49.613 194.920,49.540 C195.030,49.468 195.124,49.432 195.204,49.432 C195.307,49.432 195.386,49.472 195.442,49.551 L195.792,50.006 C195.638,50.193 195.454,50.355 195.239,50.492 C195.024,50.630 194.794,50.743 194.549,50.832 C194.304,50.921 194.050,50.987 193.789,51.031 C193.527,51.076 193.268,51.098 193.011,51.098 C192.520,51.098 192.069,51.015 191.655,50.849 C191.242,50.684 190.885,50.441 190.583,50.121 C190.282,49.802 190.047,49.406 189.879,48.935 C189.711,48.464 189.627,47.922 189.627,47.311 C189.627,46.816 189.703,46.354 189.855,45.925 C190.006,45.496 190.225,45.123 190.510,44.808 C190.795,44.493 191.143,44.246 191.554,44.066 C191.965,43.887 192.427,43.797 192.941,43.797 C193.366,43.797 193.758,43.868 194.118,44.010 C194.477,44.153 194.788,44.358 195.050,44.626 C195.311,44.895 195.516,45.226 195.663,45.620 C195.810,46.015 195.883,46.464 195.883,46.968 C195.883,47.164 195.862,47.295 195.820,47.360 C195.778,47.425 195.699,47.458 195.582,47.458 ZM194.643,45.886 C194.564,45.646 194.447,45.438 194.293,45.263 C194.139,45.089 193.951,44.953 193.729,44.857 C193.507,44.762 193.254,44.714 192.969,44.714 C192.366,44.714 191.892,44.888 191.547,45.235 C191.201,45.583 190.986,46.065 190.902,46.681 L194.762,46.681 C194.762,46.392 194.723,46.127 194.643,45.886 ZM188.422,45.141 C188.356,45.141 188.256,45.119 188.121,45.074 C187.985,45.030 187.796,45.008 187.553,45.008 C187.119,45.008 186.756,45.134 186.464,45.386 C186.172,45.638 185.928,46.004 185.732,46.485 L185.732,51.000 L184.485,51.000 L184.485,43.909 L185.199,43.909 C185.335,43.909 185.428,43.935 185.479,43.986 C185.531,44.037 185.566,44.126 185.585,44.252 L185.669,45.358 C185.911,44.863 186.212,44.477 186.569,44.199 C186.926,43.922 187.345,43.783 187.826,43.783 C188.023,43.783 188.200,43.805 188.359,43.849 C188.518,43.894 188.665,43.956 188.800,44.035 L188.639,44.966 C188.606,45.083 188.534,45.141 188.422,45.141 ZM182.001,46.359 C181.686,46.639 181.294,46.857 180.827,47.013 C180.360,47.170 179.826,47.248 179.223,47.248 L177.612,47.248 L177.612,51.000 L176.260,51.000 L176.260,40.969 L179.223,40.969 C179.858,40.969 180.411,41.042 180.880,41.189 C181.349,41.337 181.738,41.545 182.047,41.816 C182.355,42.087 182.585,42.413 182.737,42.796 C182.888,43.179 182.964,43.606 182.964,44.077 C182.964,44.544 182.883,44.971 182.719,45.358 C182.556,45.745 182.316,46.079 182.001,46.359 ZM181.013,42.579 C180.618,42.220 180.022,42.040 179.223,42.040 L177.612,42.040 L177.612,46.170 L179.223,46.170 C179.611,46.170 179.953,46.119 180.249,46.016 C180.546,45.913 180.795,45.770 180.996,45.585 C181.196,45.401 181.348,45.181 181.451,44.924 C181.554,44.667 181.605,44.385 181.605,44.077 C181.605,43.438 181.408,42.938 181.013,42.579 ZM172.750,50.741 L172.638,49.880 C172.334,50.249 171.987,50.544 171.597,50.765 C171.207,50.987 170.760,51.098 170.255,51.098 C169.849,51.098 169.480,51.020 169.149,50.863 C168.817,50.707 168.534,50.477 168.301,50.174 C168.067,49.871 167.887,49.493 167.761,49.040 C167.635,48.587 167.572,48.067 167.572,47.479 C167.572,46.956 167.642,46.470 167.782,46.019 C167.922,45.569 168.124,45.178 168.388,44.847 C168.652,44.516 168.973,44.255 169.352,44.066 C169.730,43.877 170.160,43.783 170.641,43.783 C171.075,43.783 171.447,43.856 171.755,44.003 C172.063,44.150 172.339,44.357 172.581,44.623 L172.581,40.689 L173.829,40.689 L173.829,51.000 L173.086,51.000 C172.908,51.000 172.796,50.914 172.750,50.741 ZM172.581,45.589 C172.353,45.281 172.102,45.065 171.828,44.941 C171.555,44.818 171.253,44.756 170.921,44.756 C170.258,44.756 169.749,44.992 169.394,45.463 C169.039,45.934 168.861,46.606 168.861,47.479 C168.861,47.941 168.901,48.336 168.980,48.665 C169.060,48.994 169.177,49.265 169.331,49.477 C169.485,49.690 169.674,49.845 169.898,49.943 C170.122,50.041 170.379,50.090 170.669,50.090 C171.075,50.090 171.431,49.997 171.737,49.810 C172.043,49.623 172.325,49.360 172.581,49.019 L172.581,45.589 ZM166.381,45.141 C166.316,45.141 166.215,45.119 166.080,45.074 C165.944,45.030 165.755,45.008 165.512,45.008 C165.078,45.008 164.715,45.134 164.423,45.386 C164.131,45.638 163.887,46.004 163.691,46.485 L163.691,51.000 L162.444,51.000 L162.444,43.909 L163.158,43.909 C163.294,43.909 163.387,43.935 163.439,43.986 C163.490,44.037 163.525,44.126 163.544,44.252 L163.628,45.358 C163.871,44.863 164.171,44.477 164.528,44.199 C164.885,43.922 165.305,43.783 165.786,43.783 C165.982,43.783 166.159,43.805 166.318,43.849 C166.477,43.894 166.624,43.956 166.759,44.035 L166.598,44.966 C166.566,45.083 166.493,45.141 166.381,45.141 ZM159.995,50.111 C159.703,50.428 159.348,50.672 158.930,50.842 C158.512,51.013 158.044,51.098 157.525,51.098 C157.007,51.098 156.539,51.013 156.121,50.842 C155.703,50.672 155.347,50.428 155.052,50.111 C154.758,49.794 154.531,49.411 154.373,48.963 C154.214,48.515 154.135,48.011 154.135,47.451 C154.135,46.896 154.214,46.393 154.373,45.942 C154.531,45.492 154.758,45.108 155.052,44.791 C155.347,44.474 155.703,44.229 156.121,44.056 C156.539,43.883 157.007,43.797 157.525,43.797 C158.044,43.797 158.512,43.883 158.930,44.056 C159.348,44.229 159.703,44.474 159.995,44.791 C160.287,45.108 160.511,45.492 160.668,45.942 C160.824,46.393 160.902,46.896 160.902,47.451 C160.902,48.011 160.824,48.515 160.668,48.963 C160.511,49.411 160.287,49.794 159.995,50.111 ZM159.095,45.484 C158.749,45.013 158.226,44.777 157.525,44.777 C157.170,44.777 156.862,44.838 156.601,44.959 C156.339,45.080 156.121,45.255 155.946,45.484 C155.770,45.713 155.640,45.994 155.553,46.327 C155.467,46.661 155.424,47.038 155.424,47.458 C155.424,47.878 155.467,48.254 155.553,48.585 C155.640,48.916 155.770,49.195 155.946,49.421 C156.121,49.648 156.339,49.822 156.601,49.943 C156.862,50.064 157.170,50.125 157.525,50.125 C158.226,50.125 158.749,49.890 159.095,49.421 C159.440,48.952 159.613,48.298 159.613,47.458 C159.613,46.613 159.440,45.955 159.095,45.484 ZM149.398,51.000 L146.855,43.349 C146.804,43.204 146.757,43.036 146.715,42.845 C146.692,42.938 146.670,43.028 146.648,43.114 C146.627,43.201 146.605,43.279 146.582,43.349 L144.025,51.000 L142.806,51.000 L139.674,40.969 L140.802,40.969 C140.923,40.969 141.024,40.999 141.103,41.060 C141.183,41.121 141.236,41.198 141.264,41.291 L143.338,48.263 C143.375,48.389 143.409,48.524 143.440,48.669 C143.470,48.814 143.499,48.965 143.527,49.124 C143.560,48.965 143.593,48.812 143.625,48.665 C143.658,48.518 143.695,48.384 143.737,48.263 L146.099,41.291 C146.127,41.212 146.181,41.138 146.263,41.070 C146.345,41.003 146.444,40.969 146.561,40.969 L146.953,40.969 C147.075,40.969 147.174,40.999 147.251,41.060 C147.328,41.121 147.383,41.198 147.416,41.291 L149.763,48.263 C149.847,48.506 149.921,48.783 149.987,49.096 C150.015,48.942 150.041,48.795 150.064,48.655 C150.087,48.515 150.118,48.384 150.155,48.263 L152.236,41.291 C152.259,41.207 152.312,41.132 152.393,41.067 C152.475,41.002 152.574,40.969 152.691,40.969 L153.749,40.969 L150.617,51.000 L149.398,51.000 ZM134.763,46.485 C134.763,45.948 134.640,45.532 134.395,45.235 C134.150,44.939 133.775,44.791 133.271,44.791 C132.902,44.791 132.557,44.880 132.237,45.057 C131.917,45.234 131.622,45.475 131.351,45.778 L131.351,51.000 L130.104,51.000 L130.104,43.909 L130.846,43.909 C131.024,43.909 131.136,43.995 131.183,44.168 L131.281,44.938 C131.589,44.597 131.933,44.322 132.314,44.112 C132.695,43.902 133.135,43.797 133.635,43.797 C134.022,43.797 134.365,43.861 134.661,43.989 C134.958,44.118 135.205,44.300 135.404,44.535 C135.602,44.771 135.753,45.055 135.856,45.386 C135.958,45.717 136.010,46.084 136.010,46.485 L136.010,51.000 L134.763,51.000 L134.763,46.485 ZM127.655,50.111 C127.363,50.428 127.008,50.672 126.590,50.842 C126.172,51.013 125.704,51.098 125.186,51.098 C124.667,51.098 124.199,51.013 123.781,50.842 C123.363,50.672 123.007,50.428 122.712,50.111 C122.418,49.794 122.192,49.411 122.033,48.963 C121.874,48.515 121.795,48.011 121.795,47.451 C121.795,46.896 121.874,46.393 122.033,45.942 C122.192,45.492 122.418,45.108 122.712,44.791 C123.007,44.474 123.363,44.229 123.781,44.056 C124.199,43.883 124.667,43.797 125.186,43.797 C125.704,43.797 126.172,43.883 126.590,44.056 C127.008,44.229 127.363,44.474 127.655,44.791 C127.947,45.108 128.171,45.492 128.328,45.942 C128.484,46.393 128.562,46.896 128.562,47.451 C128.562,48.011 128.484,48.515 128.328,48.963 C128.171,49.411 127.947,49.794 127.655,50.111 ZM126.755,45.484 C126.409,45.013 125.886,44.777 125.186,44.777 C124.831,44.777 124.522,44.838 124.261,44.959 C123.999,45.080 123.781,45.255 123.606,45.484 C123.431,45.713 123.300,45.994 123.213,46.327 C123.127,46.661 123.084,47.038 123.084,47.458 C123.084,47.878 123.127,48.254 123.213,48.585 C123.300,48.916 123.431,49.195 123.606,49.421 C123.781,49.648 123.999,49.822 124.261,49.943 C124.522,50.064 124.831,50.125 125.186,50.125 C125.886,50.125 126.409,49.890 126.755,49.421 C127.100,48.952 127.273,48.298 127.273,47.458 C127.273,46.613 127.100,45.955 126.755,45.484 ZM120.124,42.302 C120.042,42.384 119.947,42.448 119.840,42.495 C119.732,42.542 119.618,42.565 119.497,42.565 C119.375,42.565 119.262,42.542 119.157,42.495 C119.052,42.448 118.958,42.384 118.877,42.302 C118.795,42.221 118.731,42.127 118.684,42.023 C118.637,41.917 118.614,41.804 118.614,41.683 C118.614,41.562 118.637,41.446 118.684,41.337 C118.731,41.227 118.795,41.131 118.877,41.049 C118.958,40.968 119.052,40.904 119.157,40.857 C119.262,40.810 119.375,40.787 119.497,40.787 C119.618,40.787 119.732,40.810 119.840,40.857 C119.947,40.904 120.042,40.968 120.124,41.049 C120.205,41.131 120.271,41.227 120.320,41.337 C120.369,41.446 120.393,41.562 120.393,41.683 C120.393,41.804 120.369,41.917 120.320,42.023 C120.271,42.127 120.205,42.221 120.124,42.302 ZM115.370,49.873 C115.515,50.018 115.702,50.090 115.931,50.090 C116.061,50.090 116.175,50.072 116.271,50.037 C116.366,50.002 116.449,49.964 116.519,49.922 C116.589,49.880 116.649,49.841 116.698,49.806 C116.747,49.771 116.790,49.754 116.828,49.754 C116.893,49.754 116.951,49.794 117.003,49.873 L117.367,50.468 C117.152,50.669 116.893,50.826 116.589,50.941 C116.286,51.055 115.973,51.112 115.651,51.112 C115.090,51.112 114.659,50.956 114.358,50.643 C114.057,50.330 113.906,49.880 113.906,49.292 L113.906,44.952 L113.051,44.952 C112.977,44.952 112.913,44.930 112.862,44.885 C112.811,44.841 112.785,44.772 112.785,44.679 L112.785,44.182 L113.948,44.035 L114.235,41.844 C114.245,41.774 114.275,41.717 114.326,41.672 C114.378,41.628 114.443,41.606 114.523,41.606 L115.153,41.606 L115.153,44.049 L117.185,44.049 L117.185,44.952 L115.153,44.952 L115.153,49.208 C115.153,49.507 115.225,49.728 115.370,49.873 ZM110.760,50.944 C110.686,50.907 110.637,50.827 110.613,50.706 L110.473,50.048 C110.286,50.216 110.104,50.366 109.927,50.499 C109.749,50.632 109.562,50.744 109.366,50.835 C109.170,50.926 108.961,50.995 108.739,51.042 C108.517,51.089 108.271,51.112 108.000,51.112 C107.724,51.112 107.466,51.073 107.226,50.996 C106.985,50.919 106.776,50.803 106.599,50.648 C106.421,50.494 106.280,50.298 106.175,50.062 C106.070,49.825 106.017,49.546 106.017,49.223 C106.017,48.942 106.094,48.671 106.249,48.411 C106.403,48.151 106.651,47.921 106.995,47.719 C107.338,47.518 107.787,47.353 108.343,47.224 C108.899,47.095 109.579,47.031 110.382,47.031 L110.382,46.474 C110.382,45.920 110.264,45.501 110.028,45.217 C109.792,44.933 109.443,44.791 108.981,44.791 C108.677,44.791 108.422,44.829 108.214,44.906 C108.006,44.984 107.826,45.070 107.674,45.165 C107.522,45.261 107.392,45.347 107.282,45.424 C107.172,45.501 107.064,45.540 106.956,45.540 C106.872,45.540 106.799,45.518 106.735,45.473 C106.672,45.429 106.622,45.374 106.585,45.309 L106.361,44.910 C106.753,44.532 107.176,44.250 107.629,44.063 C108.082,43.876 108.584,43.783 109.135,43.783 C109.532,43.783 109.885,43.848 110.193,43.979 C110.501,44.110 110.760,44.292 110.971,44.525 C111.181,44.758 111.340,45.041 111.447,45.372 C111.554,45.703 111.608,46.067 111.608,46.464 L111.608,51.000 L111.055,51.000 C110.933,51.000 110.835,50.981 110.760,50.944 ZM110.382,47.822 C109.808,47.822 109.320,47.858 108.918,47.931 C108.516,48.004 108.189,48.099 107.937,48.216 C107.685,48.334 107.501,48.472 107.387,48.632 C107.273,48.791 107.215,48.970 107.215,49.167 C107.215,49.355 107.246,49.517 107.306,49.653 C107.367,49.789 107.449,49.900 107.552,49.987 C107.654,50.074 107.776,50.137 107.916,50.177 C108.056,50.217 108.208,50.237 108.371,50.237 C108.591,50.237 108.792,50.215 108.974,50.170 C109.156,50.126 109.328,50.063 109.489,49.981 C109.650,49.900 109.804,49.801 109.951,49.684 C110.098,49.567 110.242,49.434 110.382,49.285 L110.382,47.822 ZM101.190,49.435 C101.368,49.662 101.584,49.834 101.838,49.953 C102.093,50.072 102.379,50.132 102.697,50.132 C103.000,50.132 103.250,50.096 103.446,50.023 C103.642,49.951 103.806,49.871 103.937,49.782 C104.067,49.693 104.175,49.613 104.259,49.540 C104.343,49.468 104.427,49.432 104.511,49.432 C104.619,49.432 104.698,49.472 104.749,49.551 L105.100,50.006 C104.791,50.384 104.406,50.660 103.944,50.835 C103.481,51.010 102.993,51.098 102.479,51.098 C102.036,51.098 101.623,51.016 101.243,50.853 C100.862,50.690 100.532,50.453 100.251,50.142 C99.971,49.832 99.751,49.451 99.589,48.998 C99.428,48.545 99.348,48.030 99.348,47.451 C99.348,46.924 99.421,46.436 99.568,45.988 C99.715,45.540 99.930,45.154 100.213,44.829 C100.495,44.505 100.845,44.252 101.260,44.070 C101.676,43.888 102.152,43.797 102.690,43.797 C103.185,43.797 103.624,43.877 104.007,44.038 C104.390,44.199 104.728,44.427 105.023,44.721 L104.693,45.169 C104.656,45.220 104.619,45.260 104.581,45.288 C104.544,45.316 104.490,45.330 104.420,45.330 C104.350,45.330 104.274,45.301 104.192,45.242 C104.111,45.184 104.007,45.120 103.881,45.050 C103.754,44.980 103.601,44.916 103.422,44.857 C103.242,44.799 103.021,44.770 102.760,44.770 C102.414,44.770 102.108,44.832 101.842,44.955 C101.576,45.079 101.352,45.258 101.173,45.491 C100.993,45.724 100.857,46.007 100.766,46.338 C100.675,46.669 100.630,47.040 100.630,47.451 C100.630,47.880 100.679,48.262 100.777,48.595 C100.875,48.929 101.013,49.209 101.190,49.435 ZM96.720,50.741 L96.622,49.978 C96.314,50.319 95.968,50.593 95.585,50.800 C95.202,51.008 94.763,51.112 94.268,51.112 C93.881,51.112 93.538,51.048 93.242,50.919 C92.945,50.791 92.697,50.610 92.496,50.377 C92.295,50.144 92.144,49.861 92.044,49.530 C91.943,49.199 91.893,48.832 91.893,48.431 L91.893,43.909 L93.140,43.909 L93.140,48.431 C93.140,48.968 93.264,49.383 93.512,49.677 C93.759,49.971 94.133,50.118 94.633,50.118 C94.997,50.118 95.340,50.032 95.662,49.859 C95.985,49.686 96.281,49.446 96.552,49.138 L96.552,43.909 L97.799,43.909 L97.799,51.000 L97.057,51.000 C96.879,51.000 96.767,50.914 96.720,50.741 ZM88.888,50.741 L88.776,49.880 C88.472,50.249 88.125,50.544 87.735,50.765 C87.345,50.987 86.898,51.098 86.394,51.098 C85.987,51.098 85.618,51.020 85.287,50.863 C84.955,50.707 84.672,50.477 84.439,50.174 C84.205,49.871 84.026,49.493 83.899,49.040 C83.773,48.587 83.710,48.067 83.710,47.479 C83.710,46.956 83.780,46.470 83.920,46.019 C84.061,45.569 84.263,45.178 84.526,44.847 C84.790,44.516 85.112,44.255 85.490,44.066 C85.868,43.877 86.298,43.783 86.779,43.783 C87.213,43.783 87.585,43.856 87.893,44.003 C88.201,44.150 88.477,44.357 88.720,44.623 L88.720,40.689 L89.967,40.689 L89.967,51.000 L89.224,51.000 C89.046,51.000 88.934,50.914 88.888,50.741 ZM88.720,45.589 C88.491,45.281 88.240,45.065 87.966,44.941 C87.693,44.818 87.391,44.756 87.059,44.756 C86.396,44.756 85.887,44.992 85.532,45.463 C85.177,45.934 84.999,46.606 84.999,47.479 C84.999,47.941 85.039,48.336 85.119,48.665 C85.198,48.994 85.315,49.265 85.469,49.477 C85.623,49.690 85.812,49.845 86.036,49.943 C86.260,50.041 86.517,50.090 86.807,50.090 C87.213,50.090 87.569,49.997 87.875,49.810 C88.181,49.623 88.463,49.360 88.720,49.019 L88.720,45.589 ZM76.284,40.969 L82.470,40.969 L82.470,42.075 L77.650,42.075 L77.650,45.407 L81.553,45.407 L81.553,46.471 L77.650,46.471 L77.650,49.894 L82.470,49.894 L82.470,51.000 L76.284,51.000 L76.284,40.969 ZM120.113,51.000 L118.866,51.000 L118.866,43.909 L120.113,43.909 L120.113,51.000 Z" class="cls-1"/>
  <path d="M143.616,34.384 C143.527,34.592 143.413,34.750 143.273,34.858 C143.133,34.966 142.919,35.020 142.631,35.020 L140.421,35.020 L142.727,30.088 L137.743,18.688 L140.337,18.688 C140.577,18.688 140.761,18.744 140.889,18.856 C141.017,18.968 141.113,19.096 141.178,19.240 L143.808,25.624 C143.896,25.832 143.972,26.048 144.036,26.272 C144.100,26.496 144.156,26.720 144.204,26.944 C144.268,26.712 144.338,26.488 144.414,26.272 C144.490,26.056 144.572,25.836 144.661,25.612 L147.135,19.240 C147.199,19.080 147.305,18.948 147.453,18.844 C147.601,18.740 147.767,18.688 147.951,18.688 L150.329,18.688 L143.616,34.384 ZM134.164,28.480 C134.356,28.696 134.612,28.804 134.932,28.804 C135.116,28.804 135.271,28.782 135.395,28.738 C135.519,28.694 135.627,28.648 135.719,28.600 C135.811,28.552 135.893,28.506 135.965,28.462 C136.037,28.418 136.109,28.396 136.181,28.396 C136.269,28.396 136.341,28.418 136.398,28.462 C136.454,28.506 136.514,28.572 136.578,28.660 L137.467,30.100 C137.034,30.460 136.538,30.732 135.977,30.916 C135.417,31.100 134.836,31.192 134.236,31.192 C133.171,31.192 132.350,30.890 131.774,30.286 C131.197,29.682 130.909,28.848 130.909,27.784 L130.909,20.908 L129.660,20.908 C129.500,20.908 129.361,20.856 129.245,20.752 C129.129,20.648 129.071,20.492 129.071,20.284 L129.071,19.108 L131.053,18.784 L131.678,15.424 C131.709,15.264 131.784,15.140 131.900,15.052 C132.016,14.964 132.162,14.920 132.338,14.920 L133.875,14.920 L133.875,18.796 L137.118,18.796 L137.118,20.908 L133.875,20.908 L133.875,27.580 C133.875,27.964 133.972,28.264 134.164,28.480 ZM127.930,21.406 C127.850,21.466 127.742,21.496 127.606,21.496 C127.486,21.496 127.322,21.468 127.114,21.412 C126.905,21.356 126.629,21.328 126.285,21.328 C125.668,21.328 125.140,21.498 124.700,21.838 C124.259,22.178 123.887,22.676 123.583,23.332 L123.583,31.000 L120.616,31.000 L120.616,18.688 L122.358,18.688 C122.662,18.688 122.874,18.744 122.994,18.856 C123.114,18.968 123.194,19.160 123.234,19.432 L123.415,20.920 C123.855,20.160 124.371,19.560 124.964,19.120 C125.556,18.680 126.221,18.460 126.958,18.460 C127.566,18.460 128.070,18.600 128.471,18.880 L128.087,21.100 C128.063,21.244 128.010,21.346 127.930,21.406 ZM115.944,30.874 C115.784,30.790 115.664,30.620 115.584,30.364 L115.320,29.488 C115.007,29.768 114.701,30.014 114.401,30.226 C114.101,30.438 113.790,30.616 113.470,30.760 C113.150,30.904 112.809,31.012 112.449,31.084 C112.089,31.156 111.688,31.192 111.248,31.192 C110.727,31.192 110.247,31.122 109.807,30.981 C109.366,30.841 108.988,30.630 108.672,30.349 C108.355,30.068 108.109,29.719 107.933,29.302 C107.757,28.884 107.669,28.399 107.669,27.845 C107.669,27.379 107.791,26.920 108.035,26.466 C108.279,26.013 108.686,25.604 109.254,25.238 C109.823,24.873 110.579,24.570 111.524,24.329 C112.469,24.089 113.642,23.968 115.043,23.968 L115.043,23.243 C115.043,22.412 114.869,21.797 114.521,21.398 C114.173,21.000 113.666,20.800 113.002,20.800 C112.521,20.800 112.121,20.856 111.801,20.968 C111.480,21.080 111.202,21.206 110.966,21.346 C110.730,21.486 110.511,21.612 110.311,21.724 C110.111,21.836 109.891,21.892 109.651,21.892 C109.450,21.892 109.278,21.840 109.134,21.736 C108.990,21.632 108.874,21.504 108.786,21.352 L108.245,20.404 C109.663,19.108 111.372,18.460 113.374,18.460 C114.095,18.460 114.737,18.578 115.302,18.814 C115.866,19.050 116.344,19.378 116.737,19.798 C117.129,20.218 117.427,20.720 117.632,21.304 C117.836,21.888 117.938,22.528 117.938,23.224 L117.938,31.000 L116.605,31.000 C116.324,31.000 116.104,30.958 115.944,30.874 ZM115.043,25.780 C114.179,25.780 113.456,25.834 112.875,25.943 C112.295,26.052 111.828,26.191 111.476,26.360 C111.124,26.529 110.874,26.727 110.726,26.952 C110.577,27.178 110.503,27.424 110.503,27.689 C110.503,28.213 110.657,28.588 110.966,28.814 C111.274,29.039 111.676,29.152 112.173,29.152 C112.477,29.152 112.757,29.124 113.014,29.069 C113.270,29.014 113.512,28.931 113.740,28.821 C113.968,28.711 114.189,28.575 114.401,28.414 C114.613,28.252 114.827,28.061 115.043,27.841 L115.043,25.780 ZM102.637,23.164 C102.637,22.380 102.464,21.790 102.120,21.394 C101.776,20.998 101.271,20.800 100.607,20.800 C100.303,20.800 100.020,20.852 99.760,20.956 C99.500,21.060 99.272,21.210 99.076,21.406 C98.879,21.602 98.725,21.848 98.613,22.144 C98.501,22.440 98.445,22.780 98.445,23.164 L98.445,31.000 L95.467,31.000 L95.467,23.164 C95.467,22.340 95.300,21.740 94.968,21.364 C94.636,20.988 94.145,20.800 93.497,20.800 C93.072,20.800 92.674,20.906 92.302,21.118 C91.929,21.330 91.583,21.620 91.263,21.988 L91.263,31.000 L88.296,31.000 L88.296,18.688 L90.110,18.688 C90.494,18.688 90.746,18.868 90.867,19.228 L91.059,20.140 C91.275,19.900 91.501,19.680 91.737,19.480 C91.973,19.280 92.226,19.108 92.494,18.964 C92.762,18.820 93.050,18.706 93.359,18.622 C93.667,18.538 94.005,18.496 94.374,18.496 C95.150,18.496 95.789,18.706 96.289,19.126 C96.790,19.546 97.164,20.104 97.412,20.800 C97.604,20.392 97.845,20.042 98.133,19.750 C98.421,19.458 98.737,19.220 99.082,19.036 C99.426,18.852 99.792,18.716 100.181,18.628 C100.569,18.540 100.959,18.496 101.352,18.496 C102.032,18.496 102.637,18.600 103.165,18.808 C103.694,19.016 104.138,19.320 104.498,19.720 C104.859,20.120 105.133,20.608 105.321,21.184 C105.509,21.760 105.603,22.420 105.603,23.164 L105.603,31.000 L102.637,31.000 L102.637,23.164 ZM79.469,19.984 C79.845,20.176 80.273,20.348 80.754,20.500 C81.234,20.652 81.725,20.814 82.225,20.986 C82.725,21.158 83.216,21.358 83.696,21.586 C84.177,21.814 84.605,22.102 84.981,22.450 C85.358,22.798 85.660,23.224 85.888,23.728 C86.116,24.232 86.231,24.844 86.231,25.564 C86.231,26.348 86.096,27.082 85.828,27.766 C85.560,28.450 85.168,29.046 84.651,29.554 C84.135,30.062 83.504,30.462 82.760,30.754 C82.015,31.046 81.162,31.192 80.201,31.192 C79.649,31.192 79.104,31.138 78.568,31.030 C78.031,30.922 77.517,30.768 77.025,30.568 C76.532,30.368 76.072,30.128 75.643,29.848 C75.215,29.568 74.833,29.256 74.496,28.912 L75.433,27.364 C75.521,27.252 75.627,27.158 75.751,27.082 C75.876,27.006 76.014,26.968 76.166,26.968 C76.366,26.968 76.582,27.050 76.814,27.214 C77.047,27.378 77.321,27.560 77.637,27.760 C77.953,27.960 78.326,28.142 78.754,28.306 C79.182,28.470 79.697,28.552 80.297,28.552 C81.218,28.552 81.931,28.334 82.435,27.898 C82.940,27.462 83.192,26.836 83.192,26.020 C83.192,25.564 83.078,25.192 82.850,24.904 C82.621,24.616 82.319,24.374 81.943,24.178 C81.566,23.982 81.138,23.816 80.658,23.680 C80.177,23.544 79.689,23.396 79.192,23.236 C78.696,23.076 78.208,22.884 77.727,22.660 C77.247,22.436 76.818,22.144 76.442,21.784 C76.066,21.424 75.764,20.974 75.535,20.434 C75.307,19.894 75.193,19.228 75.193,18.436 C75.193,17.804 75.319,17.188 75.571,16.588 C75.824,15.988 76.192,15.456 76.676,14.992 C77.161,14.528 77.755,14.156 78.460,13.876 C79.164,13.596 79.969,13.456 80.874,13.456 C81.899,13.456 82.844,13.616 83.708,13.936 C84.573,14.256 85.310,14.704 85.918,15.280 L85.126,16.804 C85.037,16.980 84.935,17.104 84.819,17.176 C84.703,17.248 84.565,17.284 84.405,17.284 C84.245,17.284 84.065,17.222 83.865,17.098 C83.664,16.974 83.428,16.836 83.156,16.684 C82.884,16.532 82.565,16.394 82.201,16.270 C81.837,16.146 81.406,16.084 80.910,16.084 C80.461,16.084 80.071,16.138 79.739,16.246 C79.407,16.354 79.126,16.504 78.898,16.696 C78.670,16.888 78.500,17.118 78.388,17.386 C78.276,17.654 78.220,17.948 78.220,18.268 C78.220,18.676 78.334,19.016 78.562,19.288 C78.790,19.560 79.092,19.792 79.469,19.984 Z" class="cls-1"/>
  <path d="M41.035,50.461 C41.035,45.788 37.226,42.000 32.528,42.000 C27.829,42.000 24.021,45.788 24.021,50.461 C24.021,55.134 24.021,64.000 24.021,64.000 L32.528,55.538 L41.035,64.000 C41.035,64.000 41.035,55.134 41.035,50.461 Z" class="cls-2"/>
  <path d="M20.231,48.792 C24.287,46.452 25.676,41.270 23.334,37.217 C20.993,33.165 15.806,31.777 11.750,34.116 C7.694,36.456 -0.000,40.895 -0.000,40.895 L11.584,43.996 L8.480,55.570 C8.480,55.570 16.175,51.131 20.231,48.792 Z" class="cls-3"/>
  <path d="M11.730,29.899 C15.779,32.234 20.956,30.848 23.294,26.803 C25.631,22.757 24.244,17.584 20.195,15.249 C16.146,12.913 8.465,8.483 8.465,8.483 L11.564,20.036 L-0.000,23.132 C-0.000,23.132 7.681,27.563 11.730,29.899 Z" class="cls-4"/>
  <path d="M24.021,13.538 C24.021,18.211 27.829,22.000 32.528,22.000 C37.226,22.000 41.035,18.211 41.035,13.538 C41.035,8.865 41.035,-0.001 41.035,-0.001 L32.528,8.461 L24.021,-0.001 C24.021,-0.001 24.021,8.865 24.021,13.538 Z" class="cls-5"/>
  <path d="M44.529,15.803 C40.609,18.050 39.267,23.026 41.530,26.919 C43.792,30.810 48.804,32.144 52.724,29.897 C56.643,27.650 64.079,23.387 64.079,23.387 L52.885,20.409 L55.884,9.293 C55.884,9.293 48.448,13.555 44.529,15.803 Z" class="cls-6"/>
  <path d="M52.722,34.065 C48.821,31.828 43.831,33.155 41.579,37.029 C39.326,40.904 40.663,45.858 44.565,48.095 C48.466,50.332 55.868,54.575 55.868,54.575 L52.882,43.510 L64.025,40.545 C64.025,40.545 56.624,36.301 52.722,34.065 Z" class="cls-7"/>
</svg>
